<?xml version="1.0" standalone="no"?>
<!DOCTYPE svg PUBLIC "-//W3C//DTD SVG 20010904//EN"
 "http://www.w3.org/TR/2001/REC-SVG-20010904/DTD/svg10.dtd">
<svg version="1.0" xmlns="http://www.w3.org/2000/svg"
 width="1280.000000pt" height="1280.000000pt" viewBox="0 0 1280.000000 1280.000000"
 preserveAspectRatio="xMidYMid meet">
<metadata>
Created by potrace 1.14, written by Peter Selinger 2001-2017
</metadata>
<g transform="translate(0.000000,1280.000000) scale(0.100000,-0.100000)"
fill="#000000" stroke="none">
<path d="M7045 10762 c-33 -16 -134 -68 -225 -117 -91 -48 -203 -108 -250
-133 -47 -24 -116 -62 -155 -82 -38 -21 -117 -62 -175 -93 -58 -30 -125 -66
-150 -79 -25 -14 -103 -56 -175 -93 -71 -38 -193 -102 -270 -143 -77 -41 -183
-97 -235 -125 -52 -27 -131 -69 -175 -92 -44 -24 -118 -63 -165 -88 -47 -24
-114 -60 -150 -79 -36 -19 -108 -58 -160 -85 -52 -28 -135 -72 -185 -98 -49
-27 -137 -73 -195 -103 -58 -30 -118 -62 -135 -72 -16 -10 -97 -52 -180 -95
-82 -43 -154 -81 -160 -85 -5 -4 -75 -42 -155 -83 -80 -42 -165 -87 -190 -100
-25 -14 -68 -37 -96 -51 -28 -14 -134 -70 -235 -124 -101 -54 -238 -127 -304
-162 -66 -34 -142 -75 -170 -90 -27 -15 -99 -53 -160 -85 -60 -32 -141 -75
-180 -95 -67 -36 -314 -167 -480 -255 -44 -23 -129 -68 -190 -100 -60 -32
-132 -70 -160 -85 -27 -15 -95 -51 -150 -80 -55 -29 -131 -69 -170 -90 -94
-50 -238 -126 -360 -190 -55 -29 -122 -65 -150 -80 -70 -39 -186 -100 -355
-188 -80 -42 -163 -86 -185 -99 -22 -13 -58 -32 -80 -43 -90 -45 -126 -152
-130 -381 -2 -163 10 -293 45 -469 36 -180 107 -448 132 -493 5 -10 11 -26 13
-36 12 -66 168 -404 216 -473 11 -14 19 -29 19 -32 0 -4 5 -12 10 -19 6 -7 32
-41 59 -77 43 -58 82 -98 150 -152 11 -10 23 -18 25 -18 2 0 120 -66 262 -146
143 -81 293 -166 334 -189 41 -23 98 -54 125 -70 194 -109 909 -513 945 -533
25 -14 59 -33 75 -42 17 -9 104 -59 195 -110 91 -52 190 -108 220 -124 65 -36
88 -49 172 -97 211 -119 459 -259 498 -281 25 -14 151 -85 280 -158 247 -140
257 -145 440 -247 63 -35 122 -68 130 -73 32 -19 519 -294 640 -362 56 -31
102 -57 193 -109 40 -23 92 -53 117 -67 25 -14 153 -86 285 -160 322 -182 326
-184 345 -179 9 2 203 129 431 282 458 308 950 638 1429 960 173 116 509 341
745 500 237 159 567 381 735 493 355 239 831 559 1395 937 220 148 535 359
700 470 321 216 1062 713 1287 863 75 51 139 101 143 111 11 35 -13 98 -50
130 -20 17 -41 31 -48 31 -7 0 -31 8 -53 18 -21 11 -101 43 -176 73 -134 53
-138 55 -153 94 -38 92 -87 270 -105 378 -5 34 -12 72 -14 85 -23 113 -27 477
-8 602 7 41 20 107 29 146 l16 71 134 84 c73 46 151 95 173 109 21 14 71 45
111 69 39 25 77 51 85 59 29 29 11 114 -33 154 -10 9 -165 71 -343 137 -179
67 -347 130 -375 140 -86 33 -642 240 -800 298 -82 30 -184 67 -225 83 -41 16
-228 86 -415 155 -187 70 -419 156 -515 192 -96 35 -218 80 -270 100 -52 19
-111 41 -130 49 -34 13 -447 167 -1155 429 -187 69 -349 129 -360 134 -100 45
-930 343 -965 347 -36 4 -57 -1 -105 -24z"/>
</g>
</svg>
